<?xml version="1.0" encoding="utf-8"?>
<!-- Generator: Adobe Illustrator 27.4.1, SVG Export Plug-In . SVG Version: 6.00 Build 0)  -->
<svg version="1.1" id="레이어_1" xmlns="http://www.w3.org/2000/svg" xmlns:xlink="http://www.w3.org/1999/xlink" x="0px"
	 y="0px" viewBox="0 0 800 800" style="enable-background:new 0 0 800 800;" xml:space="preserve">
<style type="text/css">
	.st0{fill:#73BBFB;}
</style>
<path class="st0" d="M789.1,691.7L633.3,535.9c-7-7-16.6-10.9-26.6-10.9h-25.5c43.1-55.2,68.8-124.5,68.8-200
	C650,145.5,504.6,0,325,0S0,145.5,0,325s145.5,325,325,325c75.5,0,144.8-25.6,200-68.8v25.5c0,10,3.9,19.5,10.9,26.6l155.8,155.8
	c14.7,14.7,38.4,14.7,53,0l44.2-44.2C803.6,730.2,803.6,706.4,789.1,691.7z M325,525c-110.5,0-200-89.4-200-200
	c0-110.5,89.4-200,200-200c110.5,0,200,89.4,200,200C525,435.5,435.7,525,325,525z"/>
</svg>
