<?xml version="1.0" encoding="utf-8"?>
<!-- Generator: Adobe Illustrator 27.4.1, SVG Export Plug-In . SVG Version: 6.00 Build 0)  -->
<svg version="1.1" id="레이어_1" xmlns="http://www.w3.org/2000/svg" xmlns:xlink="http://www.w3.org/1999/xlink" x="0px"
	 y="0px" viewBox="0 0 800 800" style="enable-background:new 0 0 800 800;" xml:space="preserve">
<style type="text/css">
	.st0{fill:#73BBFB;}
</style>
<path class="st0" d="M400,12.5C186,12.5,12.5,186,12.5,400S186,787.5,400,787.5S787.5,614,787.5,400S614,12.5,400,12.5z
	 M382.3,387.9c-4.5,7.5-12.7,12.1-21.4,12.1h-0.5c-6.6,0-13,2.6-17.7,7.3l-8.8,8.8c-4.9,4.9-4.9,12.8,0,17.7l8.8,8.8
	c4.7,4.7,7.3,11,7.3,17.7V475c0,13.8-11.2,25-25,25h-9.5c-9.5,0-18.1-5.3-22.4-13.8l-35.3-70.7c-3.8-7.6-14-9.3-20-3.2l-30.4,30.4
	c-4.7,4.7-11,7.3-17.7,7.3H91.9c-2.6-16.3-4.4-32.9-4.4-50C87.5,227.7,227.7,87.5,400,87.5c33.6,0,65.9,5.5,96.3,15.3L417.9,163
	c-8,5.3-7.2,17.3,1.3,21.6l16.9,8.5c8.5,4.2,13.8,12.9,13.8,22.4v122.1c0,6.9-5.6,12.5-12.5,12.5h-4.8c-4.7,0-9.1-2.7-11.2-6.9
	c-2.4-4.9-9.3-5.1-12.1-0.5L382.3,387.9L382.3,387.9z M650,560c0,6.6-2.6,13-7.3,17.7l-15,15c-4.7,4.7-11,7.3-17.7,7.3h-23.7
	c-6.6,0-13-2.6-17.7-7.3l-20.3-20.3c-10.4-10.4-25.5-14.6-39.7-11l-33.2,8.3c-2,0.5-4,0.8-6.1,0.8h-16.2c-6.6,0-13-2.6-17.7-7.3
	l-18.6-18.6c-2.3-2.3-3.7-5.5-3.7-8.8v-15.9c0-5.1,3.1-9.7,7.9-11.6l61.5-24.6c3.1-1.2,6-2.8,8.7-4.8l37-26.4
	c2.1-1.5,4.7-2.3,7.2-2.3h18.9c5,0,9.6,3,11.5,7.7l8.4,20.1c1,2.3,3.2,3.8,5.8,3.8h5.9c2.8,0,5.2-1.8,6-4.5l6.6-22.6
	c0.8-2.7,3.2-4.5,6-4.5h9.5c3.5,0,6.2,2.8,6.2,6.2v20.2c0,3.3,1.3,6.5,3.7,8.8l18.6,18.6c4.7,4.7,7.3,11,7.3,17.7L650,560L650,560z"
	/>
</svg>
