<?xml version="1.0" encoding="utf-8"?>
<!-- Generator: Adobe Illustrator 27.4.1, SVG Export Plug-In . SVG Version: 6.00 Build 0)  -->
<svg version="1.1" id="레이어_1" xmlns="http://www.w3.org/2000/svg" xmlns:xlink="http://www.w3.org/1999/xlink" x="0px"
	 y="0px" viewBox="0 0 800 800" style="enable-background:new 0 0 800 800;" xml:space="preserve">
<style type="text/css">
	.st0{fill:#73BBFB;}
</style>
<path class="st0" d="M364.7,364.6c-19.5,19.5-19.5,51.2,0,70.7c19.5,19.5,51.2,19.5,70.7,0c19.5-19.5,19.5-51.2,0-70.7
	C415.8,345.1,384.2,345.1,364.7,364.6z M400,12.5C186,12.5,12.5,186,12.5,400S186,787.5,400,787.5S787.5,614,787.5,400
	S614,12.5,400,12.5z M597.1,243.8L494,469.4c-5,10.9-13.7,19.7-24.6,24.6L243.8,597.1c-26,11.9-52.8-14.9-40.9-40.9L306,330.6
	c5-10.9,13.7-19.7,24.6-24.6l225.5-103.1C582.2,191,609,217.8,597.1,243.8L597.1,243.8z"/>
</svg>
