<?xml version="1.0" encoding="utf-8"?>
<!-- Generator: Adobe Illustrator 27.4.1, SVG Export Plug-In . SVG Version: 6.00 Build 0)  -->
<svg version="1.1" id="레이어_1" xmlns="http://www.w3.org/2000/svg" xmlns:xlink="http://www.w3.org/1999/xlink" x="0px"
	 y="0px" viewBox="0 0 800 800" style="enable-background:new 0 0 800 800;" xml:space="preserve">
<style type="text/css">
	.st0{fill:#73BBFB;}
</style>
<g>
	<path class="st0" d="M591.4,119.9c32.1,0,61.6,10.8,85.5,31.1c16.2,13.9,29.1,30.6,38.2,49.7c8.8,18.5,13.8,38.4,14.7,59.2
		c1,21-2.1,41.5-9.2,61c-7.3,20-18.5,37.8-33.2,53L399.9,670.8L112.5,374c-14.7-15.2-25.9-33.1-33.1-53c-7.1-19.5-10.2-40-9.2-61
		c1-20.8,6-40.7,14.8-59.2c9.1-19.1,21.9-35.8,38.2-49.7h0c23.9-20.4,53.5-31.1,85.6-31.1c40.7,0,80.8,17.4,110.2,47.8
		c0,0,0.1,0.1,0.1,0.1l30.8,31.7c13.2,13.6,31.3,21.3,50.2,21.3s37.1-7.7,50.2-21.3l30.8-31.8C510.5,137.4,550.7,119.9,591.4,119.9
		 M591.4,49.9c-58.2,0-116.9,24.1-160.6,69.1L400,150.8l-30.8-31.7C325.7,74,266.9,50,208.7,49.9c-46.6,0-93,15.4-131,47.9
		c-98.1,83.8-103.3,234.1-15.5,324.8l302.3,312.2c9.8,10.1,22.6,15.1,35.4,15.1s25.6-5,35.4-15.1l302.3-312.2
		c88-90.8,82.8-241.1-15.3-324.8C684.3,65.4,638,49.9,591.4,49.9L591.4,49.9z"/>
</g>
</svg>
