<?xml version="1.0" encoding="utf-8"?>
<!-- Generator: Adobe Illustrator 27.4.1, SVG Export Plug-In . SVG Version: 6.00 Build 0)  -->
<svg version="1.1" id="레이어_1" xmlns="http://www.w3.org/2000/svg" xmlns:xlink="http://www.w3.org/1999/xlink" x="0px"
	 y="0px" viewBox="0 0 800 800" style="enable-background:new 0 0 800 800;" xml:space="preserve">
<style type="text/css">
	.st0{fill:#73BBFB;}
</style>
<path class="st0" d="M75,206.2h650c13.8,0,25-11.2,25-25v-62.5c0-13.8-11.2-25-25-25H75c-13.8,0-25,11.2-25,25v62.5
	C50,195.1,61.2,206.2,75,206.2z M75,456.2h650c13.8,0,25-11.2,25-25v-62.5c0-13.8-11.2-25-25-25H75c-13.8,0-25,11.2-25,25v62.5
	C50,445.1,61.2,456.2,75,456.2z M75,706.2h650c13.8,0,25-11.2,25-25v-62.5c0-13.8-11.2-25-25-25H75c-13.8,0-25,11.2-25,25v62.5
	C50,695.1,61.2,706.2,75,706.2z"/>
</svg>
