<?xml version="1.0" encoding="utf-8"?>
<!-- Generator: Adobe Illustrator 27.4.1, SVG Export Plug-In . SVG Version: 6.00 Build 0)  -->
<svg version="1.1" id="레이어_1" xmlns="http://www.w3.org/2000/svg" xmlns:xlink="http://www.w3.org/1999/xlink" x="0px"
	 y="0px" viewBox="0 0 800 800" style="enable-background:new 0 0 800 800;" xml:space="preserve">
<style type="text/css">
	.st0{fill:#73BBFB;}
</style>
<path class="st0" d="M792.7,132.3L725,64.6c-9.4-9.4-22.1-14.6-35.4-14.6H450V25c0-13.8-11.2-25-25-25h-50c-13.8,0-25,11.2-25,25v25
	H87.5C66.8,50,50,66.8,50,87.5v125c0,20.7,16.8,37.5,37.5,37.5h602.1c13.3,0,26-5.3,35.4-14.6l67.7-67.7
	C802.4,157.9,802.4,142.1,792.7,132.3L792.7,132.3z M350,775c0,13.8,11.2,25,25,25h50c13.8,0,25-11.2,25-25V600H350V775z M712.5,350
	H450v-50H350v50H110.4c-13.3,0-26,5.3-35.4,14.6L7.3,432.3c-9.8,9.8-9.8,25.6,0,35.4L75,535.4c9.4,9.4,22.1,14.6,35.4,14.6h602.1
	c20.7,0,37.5-16.8,37.5-37.5v-125C750,366.8,733.2,350,712.5,350z"/>
</svg>
